<svg xmlns="http://www.w3.org/2000/svg" width="72" height="72" viewBox="0 0 72 72"><defs><style>.a{fill:#00a8e1;}</style></defs><g transform="translate(-2 -2)"><path class="a" d="M52.184,23.612A3.583,3.583,0,0,0,48.8,21.2H47.6V18.8h1.2a3.611,3.611,0,0,0,3.6-3.6V5.6A3.611,3.611,0,0,0,48.8,2H5.6A3.611,3.611,0,0,0,2,5.6v9.6a3.611,3.611,0,0,0,3.6,3.6H6.8v2.4H5.6A3.611,3.611,0,0,0,2,24.8v9.6A3.611,3.611,0,0,0,5.6,38H6.8v2.4H5.6A3.611,3.611,0,0,0,2,44v9.6a3.611,3.611,0,0,0,3.6,3.6H28.4v9.6c0,4.728,11.472,7.2,22.8,7.2S74,71.528,74,66.8v-36C74,26.2,63.188,23.756,52.184,23.612ZM5.6,16.4a1.2,1.2,0,0,1-1.2-1.2V5.6A1.2,1.2,0,0,1,5.6,4.4H48.8A1.2,1.2,0,0,1,50,5.6v9.6a1.2,1.2,0,0,1-1.2,1.2Zm39.6,2.4v2.4H40.4V18.8Zm-7.2,0v2.4H16.4V18.8Zm-24,0v2.4H9.2V18.8Zm14.4,36H5.6a1.2,1.2,0,0,1-1.2-1.2V44a1.2,1.2,0,0,1,1.2-1.2H28.4ZM9.2,40.4V38H14v2.4Zm19.2,0h-12V38h12Zm0-9.6v4.8H5.6a1.2,1.2,0,0,1-1.2-1.2V24.8a1.2,1.2,0,0,1,1.2-1.2H48.8a.84.84,0,0,1,.168.036C38.408,23.936,28.4,26.384,28.4,30.8Zm43.2,36c0,1.632-7.2,4.8-20.4,4.8s-20.4-3.168-20.4-4.8V58.184C34.748,60.692,42.992,62,51.2,62s16.452-1.308,20.4-3.816Zm0-12c0,1.632-7.2,4.8-20.4,4.8s-20.4-3.168-20.4-4.8V46.184C34.748,48.692,42.992,50,51.2,50s16.452-1.308,20.4-3.816Zm0-12c0,1.632-7.2,4.8-20.4,4.8s-20.4-3.168-20.4-4.8V34.184C34.748,36.692,42.992,38,51.2,38s16.452-1.308,20.4-3.816ZM51.2,35.6c-13.2,0-20.4-3.168-20.4-4.8S38,26,51.2,26s20.4,3.168,20.4,4.8S64.4,35.6,51.2,35.6Z" transform="translate(0 0)"/><path class="a" d="M42,35h2.4v2.4H42Z" transform="translate(8 6.6)"/><path class="a" d="M42,46h2.4v2.4H42Z" transform="translate(8 8.8)"/><path class="a" d="M42,55h2.4v2.4H42Z" transform="translate(8 10.6)"/><path class="a" d="M12,22H7.2A1.2,1.2,0,0,0,6,23.2V28a1.2,1.2,0,0,0,1.2,1.2H12A1.2,1.2,0,0,0,13.2,28V23.2A1.2,1.2,0,0,0,12,22Zm-1.2,4.8H8.4V24.4h2.4Z" transform="translate(0.8 4)"/><path class="a" d="M20,22H15.2A1.2,1.2,0,0,0,14,23.2V28a1.2,1.2,0,0,0,1.2,1.2H20A1.2,1.2,0,0,0,21.2,28V23.2A1.2,1.2,0,0,0,20,22Zm-1.2,4.8H16.4V24.4h2.4Z" transform="translate(2.4 4)"/><path class="a" d="M12,6H7.2A1.2,1.2,0,0,0,6,7.2V12a1.2,1.2,0,0,0,1.2,1.2H12A1.2,1.2,0,0,0,13.2,12V7.2A1.2,1.2,0,0,0,12,6Zm-1.2,4.8H8.4V8.4h2.4Z" transform="translate(0.8 0.8)"/><path class="a" d="M20,6H15.2A1.2,1.2,0,0,0,14,7.2V12a1.2,1.2,0,0,0,1.2,1.2H20A1.2,1.2,0,0,0,21.2,12V7.2A1.2,1.2,0,0,0,20,6Zm-1.2,4.8H16.4V8.4h2.4Z" transform="translate(2.4 0.8)"/><path class="a" d="M22,6H38.8V8.4H22Z" transform="translate(4 0.8)"/><path class="a" d="M38,6h2.4V8.4H38Z" transform="translate(7.2 0.8)"/><path class="a" d="M22,10H38.8v2.4H22Z" transform="translate(4 1.6)"/><path class="a" d="M38,10h2.4v2.4H38Z" transform="translate(7.2 1.6)"/><path class="a" d="M12,38H7.2A1.2,1.2,0,0,0,6,39.2V44a1.2,1.2,0,0,0,1.2,1.2H12A1.2,1.2,0,0,0,13.2,44V39.2A1.2,1.2,0,0,0,12,38Zm-1.2,4.8H8.4V40.4h2.4Z" transform="translate(0.8 7.2)"/><path class="a" d="M20,38H15.2A1.2,1.2,0,0,0,14,39.2V44a1.2,1.2,0,0,0,1.2,1.2H20A1.2,1.2,0,0,0,21.2,44V39.2A1.2,1.2,0,0,0,20,38Zm-1.2,4.8H16.4V40.4h2.4Z" transform="translate(2.4 7.2)"/></g></svg>