<svg xmlns="http://www.w3.org/2000/svg" width="15.194" height="15.194" viewBox="0 0 15.194 15.194"><defs><style>.a{fill:#fff;}</style></defs><g transform="translate(0.594 10.259)"><path class="a" d="M20.021,345.689v1.224a2.845,2.845,0,0,0,2.4,2.806v.905h.89v-.87h7.434v.87h.89v-.905a2.845,2.845,0,0,0,2.4-2.806v-1.224Z" transform="translate(-20.021 -345.689)"/></g><path class="a" d="M1.49,7.586V2.45A1.559,1.559,0,0,1,4.6,2.262,2.082,2.082,0,0,0,2.976,4.29v.594H7.133V4.29A2.082,2.082,0,0,0,5.492,2.258,2.45,2.45,0,0,0,.6,2.45V7.586H.006V9.368H15.2V7.586H1.49Z" transform="translate(-0.006)"/></svg>