<svg xmlns="http://www.w3.org/2000/svg" width="19.599" height="15.194" viewBox="0 0 19.599 15.194"><defs><style>.a{fill:#fff;}</style></defs><path class="a" d="M11.843,225.158H28.189a1.22,1.22,0,1,0,0-2.44H11.843a1.22,1.22,0,1,0,0,2.44Z" transform="translate(-10.216 -216.395)"/><path class="a" d="M271.646,153.983a.646.646,0,0,0-.646.646v.837h5v-.837a.646.646,0,0,0-.646-.646Z" transform="translate(-260.626 -150.291)"/><path class="a" d="M33.636,61.869a1.8,1.8,0,0,1,1.794-1.794h3.706a1.787,1.787,0,0,1,1.22.48,1.787,1.787,0,0,1,1.22-.48H45.28a1.8,1.8,0,0,1,1.794,1.794v.837h1.864V58.751a1.22,1.22,0,0,0-1.22-1.22H32.992a1.22,1.22,0,0,0-1.22,1.22v3.955h1.864Z" transform="translate(-30.556 -57.531)"/><path class="a" d="M111.107,153.983a.646.646,0,0,0-.646.646v.837h5v-.837a.646.646,0,0,0-.646-.646Z" transform="translate(-106.233 -150.291)"/><path class="a" d="M0,316.452v5.283H1.148v-2.094h17.3v2.094H19.6v-5.283Z" transform="translate(0 -306.541)"/></svg>