<svg xmlns="http://www.w3.org/2000/svg" width="18.993" height="15.194" viewBox="0 0 18.993 15.194"><defs><style>.a{fill:#fff;}</style></defs><path class="a" d="M17.357,10.369l-.445-1.112-.789-1.972A4.41,4.41,0,0,0,12.009,4.5H6.984A4.411,4.411,0,0,0,2.869,7.286L2.08,9.257l-.445,1.112A2.527,2.527,0,0,0,0,12.73v1.9a2.512,2.512,0,0,0,.633,1.659v2.139A1.266,1.266,0,0,0,1.9,19.694H3.165a1.266,1.266,0,0,0,1.266-1.266V17.162H14.561v1.266a1.266,1.266,0,0,0,1.266,1.266h1.266a1.266,1.266,0,0,0,1.266-1.266V16.289a2.51,2.51,0,0,0,.633-1.659v-1.9A2.527,2.527,0,0,0,17.357,10.369ZM5.22,8.226A1.9,1.9,0,0,1,6.984,7.032h5.025a1.9,1.9,0,0,1,1.764,1.194l.789,1.972H4.432L5.22,8.226Zm-2.055,6.4A1.194,1.194,0,0,1,1.9,13.359,1.194,1.194,0,0,1,3.165,12.1a2.436,2.436,0,0,1,1.9,1.893C5.065,14.748,3.925,14.622,3.165,14.622Zm12.662,0c-.76,0-1.9.126-1.9-.631a2.436,2.436,0,0,1,1.9-1.893,1.194,1.194,0,0,1,1.266,1.262,1.194,1.194,0,0,1-1.266,1.262Z" transform="translate(0 -4.5)"/></svg>