<svg xmlns="http://www.w3.org/2000/svg" width="40.001" height="40.001" viewBox="0 0 40.001 40.001"><defs><style>.a{fill:#073558;}</style></defs><g transform="translate(0 0)"><path class="a" d="M340.826,124.751h-5.563a.781.781,0,0,0-.781.781v3.82a.781.781,0,0,0,.781.781h5.563a.781.781,0,0,0,.781-.781v-3.82A.781.781,0,0,0,340.826,124.751Zm-.781,3.82h-4v-2.258h4Z" transform="translate(-308.35 -115.005)"/><path class="a" d="M216.728,124.751h-5.563a.781.781,0,0,0-.781.781v3.82a.781.781,0,0,0,.781.781h5.563a.781.781,0,0,0,.781-.781v-3.82A.781.781,0,0,0,216.728,124.751Zm-.781,3.82h-4v-2.258h4Z" transform="translate(-193.947 -115.005)"/><path class="a" d="M92.631,124.751H87.066a.781.781,0,0,0-.781.781v3.82a.781.781,0,0,0,.781.781h5.565a.781.781,0,0,0,.781-.781v-3.82A.781.781,0,0,0,92.631,124.751Zm-.781,3.82h-4v-2.258h4Z" transform="translate(-79.544 -115.005)"/><path class="a" d="M39.981,9.858a.781.781,0,0,0-.447-.7L20.333.075a.781.781,0,0,0-.668,0L.467,9.155a.781.781,0,0,0-.447.7L0,15.893a.781.781,0,0,0,.781.784H3.107V39.219A.781.781,0,0,0,3.888,40H36.112a.781.781,0,0,0,.781-.781V16.677h2.326A.781.781,0,0,0,40,15.893ZM26.94,38.438H24.769V36.267H26.94ZM30.674,34.7H28.5V32.533h2.171Zm0-11.046H9.327V22.1H30.674Zm0,1.563v5.75H27.721a.781.781,0,0,0-.781.781V34.7H23.988a.781.781,0,0,0-.781.781v2.952H20.528V35.486a.781.781,0,0,0-.781-.781H16.794V31.752a.781.781,0,0,0-.781-.781H13.061V28.018a.781.781,0,0,0-.781-.781H9.327V25.221ZM11.5,30.971H9.327V28.8H11.5ZM9.327,32.533H11.5V34.7H9.327Zm3.734,0h2.171V34.7H13.061Zm2.171,3.734v2.171H13.06V36.267Zm1.563,0h2.171v2.171H16.794Zm-7.468,0H11.5v2.171H9.327ZM28.5,38.438V36.267h2.171v2.171Zm7.61-23.324a.781.781,0,0,0-.781.781V38.438H32.236V18.973h.683a.781.781,0,0,0,0-1.563H23.507a.781.781,0,0,0,0,1.563h7.167v1.562H9.327V18.973h7.165a.781.781,0,0,0,0-1.563H7.079a.781.781,0,0,0,0,1.563h.685V38.438H4.669V15.9a.781.781,0,0,0-.781-.781H1.565l.016-4.758L20,1.645,38.42,10.356l.016,4.758Z" transform="translate(0 0)"/><path class="a" d="M246.766,222.856a.781.781,0,1,0,0,1.563h0a.781.781,0,1,0,0-1.563Z" transform="translate(-226.767 -205.445)"/></g></svg>