<svg xmlns="http://www.w3.org/2000/svg" width="37.266" height="40.001" viewBox="0 0 37.266 40.001"><defs><style>.a{fill:#073558;}</style></defs><g transform="translate(4.533 3.652)"><path class="a" d="M80.93,46.747H76.306a.781.781,0,0,0-.781.781v4.623a.781.781,0,0,0,.781.781H80.93a.781.781,0,0,0,.781-.781V47.528A.781.781,0,0,0,80.93,46.747Zm-.781,4.623H77.088V48.31h3.061Z" transform="translate(-75.525 -46.747)"/></g><g transform="translate(15.477 3.652)"><path class="a" d="M221.012,46.747h-4.623a.781.781,0,0,0-.781.781v4.623a.781.781,0,0,0,.781.781h4.623a.781.781,0,0,0,.781-.781V47.528A.781.781,0,0,0,221.012,46.747Zm-.781,4.623H217.17V48.31h3.061Z" transform="translate(-215.607 -46.747)"/></g><g transform="translate(4.533 11.445)"><path class="a" d="M80.93,146.5H76.306a.781.781,0,0,0-.781.781V151.9a.781.781,0,0,0,.781.781H80.93a.781.781,0,0,0,.781-.781v-4.623A.781.781,0,0,0,80.93,146.5Zm-.781,4.623H77.088v-3.061h3.061Z" transform="translate(-75.525 -146.498)"/></g><g transform="translate(15.477 11.445)"><path class="a" d="M221.012,146.5h-4.623a.781.781,0,0,0-.781.781V151.9a.781.781,0,0,0,.781.781h4.623a.781.781,0,0,0,.781-.781v-4.623A.781.781,0,0,0,221.012,146.5Zm-.781,4.623H217.17v-3.061h3.061Z" transform="translate(-215.607 -146.498)"/></g><g transform="translate(4.533 19.239)"><path class="a" d="M80.93,246.249H76.306a.781.781,0,0,0-.781.781v4.623a.781.781,0,0,0,.781.781H80.93a.781.781,0,0,0,.781-.781V247.03A.781.781,0,0,0,80.93,246.249Zm-.781,4.623H77.088v-3.061h3.061Z" transform="translate(-75.525 -246.249)"/></g><g transform="translate(15.477 19.239)"><path class="a" d="M221.012,246.249h-4.623a.781.781,0,0,0-.781.781v4.623a.781.781,0,0,0,.781.781h4.623a.781.781,0,0,0,.781-.781V247.03A.781.781,0,0,0,221.012,246.249Zm-.781,4.623H217.17v-3.061h3.061Z" transform="translate(-215.607 -246.249)"/></g><g transform="translate(4.533 27.032)"><path class="a" d="M80.93,346H76.306a.781.781,0,0,0-.781.781V351.4a.781.781,0,0,0,.781.781H80.93a.781.781,0,0,0,.781-.781v-4.623A.781.781,0,0,0,80.93,346Zm-.781,4.623H77.088v-3.061h3.061Z" transform="translate(-75.525 -346)"/></g><g transform="translate(15.477 27.032)"><path class="a" d="M221.012,346h-4.623a.781.781,0,0,0-.781.781V351.4a.781.781,0,0,0,.781.781h4.623a.781.781,0,0,0,.781-.781v-4.623A.781.781,0,0,0,221.012,346Zm-.781,4.623H217.17v-3.061h3.061Z" transform="translate(-215.607 -346)"/></g><g transform="translate(12.317 4.462)"><path class="a" d="M176.707,57.74a.785.785,0,0,0-.045-.146.784.784,0,0,0-.169-.254.781.781,0,0,0-.852-.169.832.832,0,0,0-.135.072.881.881,0,0,0-.119.1.785.785,0,0,0-.169.254.789.789,0,0,0-.045.146.792.792,0,0,0,0,.305.79.79,0,0,0,.045.146.776.776,0,0,0,.423.423.789.789,0,0,0,.146.045.793.793,0,0,0,.305,0,.788.788,0,0,0,.146-.045.784.784,0,0,0,.254-.169.789.789,0,0,0,.229-.552A.777.777,0,0,0,176.707,57.74Z" transform="translate(-175.16 -57.111)"/></g><g transform="translate(26.547 11.445)"><path class="a" d="M362.7,146.5h-4.623a.781.781,0,0,0-.781.781V151.9a.781.781,0,0,0,.781.781H362.7a.781.781,0,0,0,.781-.781v-4.623A.781.781,0,0,0,362.7,146.5Zm-.781,4.623h-3.061v-3.061h3.061Z" transform="translate(-357.296 -146.498)"/></g><g transform="translate(26.547 19.239)"><path class="a" d="M362.7,246.249h-4.623a.781.781,0,0,0-.781.781v4.623a.781.781,0,0,0,.781.781H362.7a.781.781,0,0,0,.781-.781V247.03A.781.781,0,0,0,362.7,246.249Zm-.781,4.623h-3.061v-3.061h3.061Z" transform="translate(-357.296 -246.249)"/></g><g transform="translate(26.547 27.032)"><path class="a" d="M362.7,346h-4.623a.781.781,0,0,0-.781.781V351.4a.781.781,0,0,0,.781.781H362.7a.781.781,0,0,0,.781-.781v-4.623A.781.781,0,0,0,362.7,346Zm-.781,4.623h-3.061v-3.061h3.061Z" transform="translate(-357.296 -346)"/></g><g transform="translate(0)"><path class="a" d="M53.985,35.257h-.466V9.057a.781.781,0,0,0-.781-.781H42.449V.781A.781.781,0,0,0,41.668,0H19.529a.781.781,0,0,0-.781.781V35.257h-.466a.781.781,0,0,0-.781.781v3.181a.781.781,0,0,0,.781.781h35.7a.781.781,0,0,0,.781-.781V36.038A.781.781,0,0,0,53.985,35.257ZM42.449,9.838h9.507V35.257H42.449ZM20.31,1.563H40.887V35.257H31.38V7.821a.781.781,0,1,0-1.563,0V35.257H20.31ZM53.2,38.438H19.063V36.819H53.2Z" transform="translate(-17.5)"/></g></svg>