<svg xmlns="http://www.w3.org/2000/svg" width="82.709" height="82.732" viewBox="0 0 82.709 82.732"><defs><style>.a{fill:#135aa0;}</style></defs><path class="a" d="M188.945,127.818A12.923,12.923,0,1,0,176.022,114.9,12.938,12.938,0,0,0,188.945,127.818Zm0-19.385a6.462,6.462,0,1,1-6.462,6.461A6.469,6.469,0,0,1,188.945,108.434Z" transform="translate(-147.591 -85.495)"/><path class="a" d="M29.448,309.165l5.248,5.248a70.977,70.977,0,0,1-19.122-3.652c-6.674-2.432-9.041-5.177-9.041-6.788a2.6,2.6,0,0,1,.4-1.275A16.116,16.116,0,0,1,3.8,296.469c-3.064,2.815-3.724,5.617-3.724,7.5,0,1.965.714,4.923,4.118,7.855a29.587,29.587,0,0,0,9.173,5,78.7,78.7,0,0,0,21.894,4.088l-5.807,5.807,4.569,4.569,13.35-13.35L34.018,304.6Z" transform="translate(-0.071 -248.564)"/><path class="a" d="M69.747,53.632h43.939a9.7,9.7,0,0,0,9.692-9.692V18.093A9.7,9.7,0,0,0,113.686,8.4H107.64l-2.39-4.971A6.083,6.083,0,0,0,99.8,0H84.12a6.083,6.083,0,0,0-5.453,3.429L76.277,8.4h-6.53a9.7,9.7,0,0,0-9.692,9.692V43.939A9.7,9.7,0,0,0,69.747,53.632ZM66.516,18.093a3.234,3.234,0,0,1,3.231-3.231h6.788a6.083,6.083,0,0,0,5.453-3.429l2.39-4.971h15.16l2.39,4.971a6.083,6.083,0,0,0,5.453,3.429h6.3a3.234,3.234,0,0,1,3.231,3.231V43.939a3.234,3.234,0,0,1-3.231,3.231H69.747a3.234,3.234,0,0,1-3.231-3.231V18.093Z" transform="translate(-50.362)"/><path class="a" d="M348.95,296.47a16.115,16.115,0,0,1-3.139,6.228,2.6,2.6,0,0,1,.4,1.275c0,1.611-2.368,4.356-9.041,6.788a66.093,66.093,0,0,1-15.19,3.309v6.494a73.549,73.549,0,0,0,17.4-3.732,29.6,29.6,0,0,0,9.173-5c3.4-2.932,4.118-5.89,4.118-7.855C352.674,302.087,352.014,299.285,348.95,296.47Z" transform="translate(-269.965 -248.565)"/></svg>