<svg xmlns="http://www.w3.org/2000/svg" width="45.186" height="40.28" viewBox="0 0 45.186 40.28"><defs><style>.a{fill:#fff;}</style></defs><g transform="translate(0.001 -27.798)"><g transform="translate(-0.001 27.798)"><g transform="translate(0 0)"><path class="a" d="M44.705,43.707,23.286,28.024a1.174,1.174,0,0,0-1.387,0L.48,43.707A1.174,1.174,0,0,0,1.867,45.6L22.593,30.427,43.318,45.6a1.174,1.174,0,0,0,1.387-1.895Z" transform="translate(0.001 -27.797)"/></g></g><g transform="translate(4.982 45.867)"><path class="a" d="M90.5,232.543a1.174,1.174,0,0,0-1.174,1.174V252.4H79.934V242.2a5.871,5.871,0,0,0-11.741,0v10.2H58.8V233.717a1.174,1.174,0,0,0-2.348,0v19.862a1.174,1.174,0,0,0,1.174,1.174h11.74a1.173,1.173,0,0,0,1.169-1.083.886.886,0,0,0,0-.091V242.2a3.523,3.523,0,0,1,7.045,0v11.375a.862.862,0,0,0,0,.09,1.173,1.173,0,0,0,1.169,1.084H90.5a1.174,1.174,0,0,0,1.174-1.174V233.717A1.174,1.174,0,0,0,90.5,232.543Z" transform="translate(-56.452 -232.543)"/></g></g></svg>