<svg xmlns="http://www.w3.org/2000/svg" width="49.166" height="41.387" viewBox="0 0 49.166 41.387"><defs><style>.a{fill:#073558;}</style></defs><path class="a" d="M50.954,49.409a.72.72,0,0,0,.9-.485l2.081-6.984H79.4a.72.72,0,1,0,0-1.44H53.394a.72.72,0,0,0-.69.514l-2.234,7.5A.72.72,0,0,0,50.954,49.409Z" transform="translate(-45.596 -40.5)"/><path class="a" d="M46.909,77.374h-2.5v-19.4h1.2a2.161,2.161,0,0,0,.215-4.31l-3.77-12.652a.72.72,0,0,0-.69-.514H36.852a.72.72,0,1,0,0,1.44H40.83l3.491,11.715H33.277l-7-8.789a2.161,2.161,0,0,0-3.379,0l-7,8.789H4.845l.532-1.787A.72.72,0,1,0,4,51.458l-.658,2.209a2.161,2.161,0,0,0,.215,4.31h1.2v19.4h-2.5a2.257,2.257,0,1,0,0,4.513H36.813a.72.72,0,1,0,0-1.44H2.257a.816.816,0,1,1,0-1.632H46.909a.816.816,0,1,1,0,1.632H39.925a.72.72,0,1,0,0,1.44h6.984a2.257,2.257,0,1,0,0-4.513ZM3.553,56.536a.72.72,0,0,1,0-1.44H16.235a.72.72,0,0,0,.563-.271l7.221-9.06a.72.72,0,0,1,1.126,0l7.221,9.06a.72.72,0,0,0,.563.271H45.613a.72.72,0,0,1,0,1.44H32.236a.717.717,0,0,1-.563-.271l-6.527-8.189a.72.72,0,0,0-1.126,0l-6.527,8.189a.717.717,0,0,1-.563.271ZM28.9,55.1H20.266l4.317-5.416ZM6.194,66.043V63.45H7.922v2.593Zm1.728,1.44v2.593H6.194V67.483Zm11.619,9.891H6.194V75.55H19.541Zm0-3.265H6.194V71.517H19.541ZM9.363,70.076V63.45h2.785v6.626Zm4.225,0V63.45h2.785v6.626Zm5.954,0H17.813V67.483h1.728Zm0-4.033H17.813V63.45h1.728Zm8.642,11.331h-7.2V63.45h7.2Zm14.788,0H29.624V75.55H42.972Zm0-3.265H29.624V71.517H42.972ZM31.353,67.483v2.593H29.624V67.483Zm-1.728-1.44V63.45h1.728v2.593Zm3.169,4.033V63.45h2.785v6.626Zm4.225,0V63.45H39.8v6.626Zm5.954,0H41.243V67.483h1.728Zm0-4.033H41.243V63.45h1.728Zm0-4.033H6.194V59.971H42.972Zm0-3.479H6.194v-.554H16.929a2.15,2.15,0,0,0,1.69-.814l.5-.626H30.047l.5.627a2.15,2.15,0,0,0,1.69.814H42.972Z" transform="translate(0 -40.5)"/></svg>