<svg xmlns="http://www.w3.org/2000/svg" width="81.235" height="81.037" viewBox="0 0 81.235 81.037"><defs><style>.a{fill:#135aa0;}</style></defs><path class="a" d="M32.446,72.763V80.99l-1.989-1.607a133.374,133.374,0,0,1-15.038-14.7C5.187,52.935,0,42.391,0,33.342v-.9a32.447,32.447,0,0,1,64.893,0v.9c0,.76-.04,1.531-.113,2.312l-6.345-5.789a26.116,26.116,0,0,0-52.1,2.58v.9c0,15.29,19.7,33.8,26.116,39.42Zm19.468-4.547h9.5v-9.5h-9.5ZM32.446,18.992A13.453,13.453,0,1,1,18.993,32.446,13.469,13.469,0,0,1,32.446,18.992Zm0,6.331a7.122,7.122,0,1,0,7.122,7.122A7.13,7.13,0,0,0,32.446,25.323Zm44.522,38.59-1.78-1.624V72.454a8.593,8.593,0,0,1-8.583,8.583H46.561a8.593,8.593,0,0,1-8.583-8.583V62.29L36.2,63.914l-4.267-4.677,24.652-22.49,24.652,22.49Zm-8.111-7.4-12.275-11.2-12.274,11.2V72.453a2.255,2.255,0,0,0,2.252,2.252H66.605a2.255,2.255,0,0,0,2.252-2.252Zm0,0" transform="translate(0 0.001)"/></svg>