<svg xmlns="http://www.w3.org/2000/svg" width="98.064" height="81.037" viewBox="0 0 98.064 81.037"><defs><style>.a{fill:#135aa0;}</style></defs><path class="a" d="M40.6,8.18H0V.519H40.6Zm-7.661,7.661H0V23.5H32.943ZM25.282,31.164H0v7.661H25.282ZM98.064,73.876H82.082a11.489,11.489,0,0,1-21.665,0H36.689a11.489,11.489,0,0,1-21.665,0H11.492A11.5,11.5,0,0,1,0,62.384v-15.9H7.661v15.9a3.835,3.835,0,0,0,3.831,3.831h3.532a11.489,11.489,0,0,1,21.665,0H59.757V11.991a3.835,3.835,0,0,0-3.831-3.831H48.266V.5h7.661A11.5,11.5,0,0,1,67.419,11.991v7.681h7.675a11.552,11.552,0,0,1,9.173,4.569l10.7,14.183a15.415,15.415,0,0,1,3.092,9.23ZM67.419,27.334V41.7H87.844L78.152,28.856a3.849,3.849,0,0,0-3.058-1.523ZM29.687,70.045a3.831,3.831,0,1,0-3.831,3.831A3.835,3.835,0,0,0,29.687,70.045Zm45.393,0a3.831,3.831,0,1,0-3.831,3.831A3.835,3.835,0,0,0,75.08,70.045ZM90.4,66.214V49.36H67.419v9.852a11.486,11.486,0,0,1,14.663,7Zm0,0" transform="translate(0 -0.5)"/></svg>