<svg xmlns="http://www.w3.org/2000/svg" width="81.037" height="81.037" viewBox="0 0 81.037 81.037"><defs><style>.a{fill:#135aa0;}</style></defs><path class="a" d="M77.261,35.078a12.711,12.711,0,0,0-9.006-3.739H60.3L60.314,9.5A9.494,9.494,0,0,0,57.6,2.8,9.307,9.307,0,0,0,50.9,0a9.549,9.549,0,0,0-9.581,9.5l-.009,21.843H33.554a12.535,12.535,0,0,0-8.929,3.722A12.679,12.679,0,0,0,20.892,44.1V68.375a6.338,6.338,0,0,1-6.331,6.331H11.4v6.331H68.375A12.676,12.676,0,0,0,81.037,68.375v-24.3a12.614,12.614,0,0,0-3.776-9ZM29.108,39.531a6.245,6.245,0,0,1,4.446-1.861H47.64L47.652,9.5A3.251,3.251,0,0,1,50.9,6.331,3.091,3.091,0,0,1,53.983,9.5L53.971,37.67H68.255a6.515,6.515,0,0,1,6.451,6.406v1.983H27.223V44.093a6.4,6.4,0,0,1,1.885-4.563ZM68.375,74.706h-1.7a12.581,12.581,0,0,0,1.7-6.331V58.72H62.044v9.655a6.338,6.338,0,0,1-6.331,6.331H54.326a12.581,12.581,0,0,0,1.7-6.331V62.361H49.7v6.014a6.338,6.338,0,0,1-6.331,6.331h-1.7a12.581,12.581,0,0,0,1.7-6.331V65.843H37.037v2.532a6.338,6.338,0,0,1-6.331,6.331H25.524a12.586,12.586,0,0,0,1.7-6.331V52.389H74.706V68.375A6.338,6.338,0,0,1,68.375,74.706Zm-62.044-5.7a3.166,3.166,0,1,1-3.166-3.166A3.165,3.165,0,0,1,6.331,69.008Zm5.7-7.914a3.166,3.166,0,1,1,3.166-3.166A3.165,3.165,0,0,1,12.029,61.094ZM9.655,45.742a3.166,3.166,0,1,1-3.166-3.166A3.165,3.165,0,0,1,9.655,45.742Zm3.957-17.885a3.166,3.166,0,1,1,3.166,3.166A3.165,3.165,0,0,1,13.612,27.857ZM2.532,16.619A3.166,3.166,0,1,1,5.7,19.784,3.165,3.165,0,0,1,2.532,16.619Z" transform="translate(0 0)"/></svg>