<svg xmlns="http://www.w3.org/2000/svg" width="72" height="72" viewBox="0 0 72 72"><defs><style>.a{fill:#00a8e1;}</style></defs><g transform="translate(-1 -1)"><path class="a" d="M73,38.161A16.279,16.279,0,0,0,60.226,22.289V6.806A5.813,5.813,0,0,0,54.419,1H24.226a5.813,5.813,0,0,0-5.806,5.806V19.581H11.706l-.7,2.806L8.527,20.9,2.317,27.106,3.8,29.586l-2.8.7v8.782l2.806.7L2.317,42.249l6.209,6.208L11,46.97l.7,2.8h6.713V67.194A5.813,5.813,0,0,0,24.226,73H54.419a5.813,5.813,0,0,0,5.806-5.806V54.034A16.279,16.279,0,0,0,73,38.161Zm-2.323,0a13.832,13.832,0,0,1-1.515,6.287A5.794,5.794,0,0,0,65.118,40.8l-4.893-1.224V39.3a5.813,5.813,0,0,0,2.323-4.621V32.356a5.807,5.807,0,0,0-6.322-5.784A5.973,5.973,0,0,0,50.935,32.6v2.082A5.813,5.813,0,0,0,53.258,39.3v.278L48.366,40.8a5.794,5.794,0,0,0-4.044,3.648,13.929,13.929,0,1,1,26.355-6.286ZM53.258,22.289a16.125,16.125,0,0,0-2.323.7V19.581H27.71V35.839H40.67a16.1,16.1,0,0,0,12.588,18.2v2.708H25.387V17.258H53.258ZM41.169,33.516H30.032V21.9H48.613v2.2A16.315,16.315,0,0,0,41.169,33.516ZM24.226,3.323H54.419A3.488,3.488,0,0,1,57.9,6.806V10.29H20.742V6.806A3.488,3.488,0,0,1,24.226,3.323ZM18.419,39.987a5.807,5.807,0,1,1,0-10.619Zm-4.9,7.465-.566-2.263-.236-.621-1.326-.539L8.886,45.533,5.242,41.888l1.505-2.507-.581-1.417-2.844-.71V32.1l2.841-.71.584-1.417L5.242,27.467l3.644-3.645,2.506,1.505,1.417-.576L13.52,21.9h4.9v5a8.129,8.129,0,1,0,0,15.55v5Zm40.9,23.226H24.226a3.488,3.488,0,0,1-3.484-3.484V63.71H57.9v3.484A3.488,3.488,0,0,1,54.419,70.677Zm3.484-9.29H20.742V12.613H57.9v9.35c-.386-.028-.769-.059-1.161-.059s-.776.031-1.161.059V14.935H23.065V59.065H55.581v-4.7c.386.028.769.059,1.161.059s.776-.031,1.161-.059ZM56.742,52.1A13.9,13.9,0,0,1,46.29,47.348v-.915a3.481,3.481,0,0,1,2.638-3.381l6.652-1.662V38.01L55,37.675a3.447,3.447,0,0,1-1.745-3V32.6a3.639,3.639,0,0,1,3.169-3.71,3.484,3.484,0,0,1,3.8,3.47v2.323a3.447,3.447,0,0,1-1.745,3l-.577.336v3.381l6.652,1.662a3.481,3.481,0,0,1,2.638,3.381v.915A13.9,13.9,0,0,1,56.742,52.1Z" transform="translate(0 0)"/><path class="a" d="M38,5h2.323V7.323H38Z" transform="translate(5.968 0.645)"/><path class="a" d="M28,5h9.29V7.323H28Z" transform="translate(4.355 0.645)"/><path class="a" d="M30,57h9.29v2.323H30Z" transform="translate(4.677 9.032)"/><path class="a" d="M44,57h2.323v2.323H44Z" transform="translate(6.935 9.032)"/><path class="a" d="M22,57h2.323v2.323H22Z" transform="translate(3.387 9.032)"/><path class="a" d="M24,33H34.452v2.323H24Z" transform="translate(3.71 5.161)"/><path class="a" d="M24,37H34.452v2.323H24Z" transform="translate(3.71 5.806)"/><path class="a" d="M24,41H34.452v2.323H24Z" transform="translate(3.71 6.452)"/><path class="a" d="M24,45H34.452v2.323H24Z" transform="translate(3.71 7.097)"/><path class="a" d="M57.484,21.258A3.475,3.475,0,0,0,58.645,14.5V5H56.323v9.5a3.475,3.475,0,0,0,1.161,6.754Zm0-4.645a1.161,1.161,0,1,1-1.161,1.161A1.162,1.162,0,0,1,57.484,16.613Z" transform="translate(8.548 0.645)"/><path class="a" d="M56,1h2.323V3.323H56Z" transform="translate(8.871 0)"/><path class="a" d="M11.484,45a3.475,3.475,0,0,0-1.161,6.754v9.5h2.323v-9.5A3.475,3.475,0,0,0,11.484,45Zm0,4.645a1.161,1.161,0,1,1,1.161-1.161A1.162,1.162,0,0,1,11.484,49.645Z" transform="translate(1.129 7.097)"/><path class="a" d="M10,61h2.323v2.323H10Z" transform="translate(1.452 9.677)"/></g></svg>