<svg xmlns="http://www.w3.org/2000/svg" width="72.009" height="72" viewBox="0 0 72.009 72"><defs><style>.a{fill:#00a8e1;}</style></defs><path class="a" d="M60.007,39.113V4.8a4.8,4.8,0,0,0-4.8-4.8H4.8A4.8,4.8,0,0,0,0,4.8V62.407a4.8,4.8,0,0,0,4.8,4.8H43.47a16.792,16.792,0,1,0,16.537-28.1ZM4.8,2.4H55.207a2.4,2.4,0,0,1,2.4,2.4v9.6H2.4V4.8A2.4,2.4,0,0,1,4.8,2.4ZM2.4,62.407V16.8H57.607V38.6a16.77,16.77,0,0,0-16.17,26.211H4.8a2.4,2.4,0,0,1-2.4-2.4Zm52.806,7.2a14.4,14.4,0,1,1,14.4-14.4A14.4,14.4,0,0,1,55.207,69.608Z"/><path class="a" d="M7.6,11.2A3.6,3.6,0,1,0,4,7.6,3.6,3.6,0,0,0,7.6,11.2Zm0-4.8A1.2,1.2,0,1,1,6.4,7.6,1.2,1.2,0,0,1,7.6,6.4Z" transform="translate(0.801 0.801)"/><path class="a" d="M15.6,11.2A3.6,3.6,0,1,0,12,7.6,3.6,3.6,0,0,0,15.6,11.2Zm0-4.8a1.2,1.2,0,1,1-1.2,1.2A1.2,1.2,0,0,1,15.6,6.4Z" transform="translate(2.402 0.801)"/><path class="a" d="M33.6,11.2h12a3.6,3.6,0,0,0,0-7.2h-12a3.6,3.6,0,1,0,0,7.2Zm0-4.8h12a1.2,1.2,0,0,1,0,2.4h-12a1.2,1.2,0,1,1,0-2.4Z" transform="translate(6.004 0.801)"/><path class="a" d="M20.8,29a4.8,4.8,0,0,0,4.8-4.8v-6a1.2,1.2,0,0,0-2.4,0v6a2.4,2.4,0,0,1-4.8,0v-6a1.2,1.2,0,0,0-2.4,0v6A4.8,4.8,0,0,0,20.8,29Z" transform="translate(3.202 3.402)"/><path class="a" d="M26.48,28.761a1.2,1.2,0,0,0,1.68-.24L30.8,25l2.64,3.52a1.2,1.2,0,1,0,1.92-1.44L32.3,23l3.06-4.08a1.2,1.2,0,0,0-1.92-1.44L30.8,21l-2.64-3.52a1.2,1.2,0,1,0-1.92,1.44L29.3,23l-3.06,4.08a1.2,1.2,0,0,0,.24,1.68Z" transform="translate(5.204 3.402)"/><path class="a" d="M7.6,44.4h9.6a3.6,3.6,0,0,0,3.6-3.6V33.6A3.6,3.6,0,0,0,17.2,30H7.6A3.6,3.6,0,0,0,4,33.6v7.2A3.6,3.6,0,0,0,7.6,44.4ZM6.4,40.8v-7.04L16.285,42H7.6A1.2,1.2,0,0,1,6.4,40.8Zm12-7.2v7.04L8.517,32.4H17.2A1.2,1.2,0,0,1,18.4,33.6Z" transform="translate(0.801 6.004)"/><path class="a" d="M20,31.2a1.2,1.2,0,0,0,1.2,1.2H40.4a1.2,1.2,0,0,0,0-2.4H21.2A1.2,1.2,0,0,0,20,31.2Z" transform="translate(4.003 6.004)"/><path class="a" d="M34,44H5.2a1.2,1.2,0,1,0,0,2.4H34A1.2,1.2,0,1,0,34,44Z" transform="translate(0.801 8.806)"/><path class="a" d="M26.8,48H5.2a1.2,1.2,0,0,0,0,2.4H26.8a1.2,1.2,0,0,0,0-2.4Z" transform="translate(0.801 9.607)"/><path class="a" d="M34.4,35H21.2a1.2,1.2,0,1,0,0,2.4H34.4a1.2,1.2,0,1,0,0-2.4Z" transform="translate(4.003 7.005)"/><path class="a" d="M32,40H21.2a1.2,1.2,0,1,0,0,2.4H32A1.2,1.2,0,0,0,32,40Z" transform="translate(4.003 8.006)"/><path class="a" d="M46.6,43.8a4.8,4.8,0,1,0-4.8,4.8A4.8,4.8,0,0,0,46.6,43.8Zm-7.2,0A2.4,2.4,0,1,1,43,45.867V45a1.2,1.2,0,0,0-2.4,0v.867A2.392,2.392,0,0,1,39.4,43.8Z" transform="translate(7.405 7.806)"/><path class="a" d="M51.8,39a4.8,4.8,0,1,0,4.8,4.8A4.8,4.8,0,0,0,51.8,39ZM53,45.867V45a1.2,1.2,0,1,0-2.4,0v.867a2.4,2.4,0,1,1,2.4,0Z" transform="translate(9.407 7.806)"/><path class="a" d="M50.6,49H43.4A2.4,2.4,0,0,0,41,51.4a6,6,0,1,0,12,0A2.4,2.4,0,0,0,50.6,49ZM47,55a3.6,3.6,0,0,1-3.6-3.6h7.2A3.6,3.6,0,0,1,47,55Z" transform="translate(8.206 9.807)"/></svg>