<svg xmlns="http://www.w3.org/2000/svg" width="83.158" height="82.227" viewBox="0 0 83.158 82.227"><defs><style>.a{fill:#135aa0;}</style></defs><g transform="translate(0.003 -2.537)"><path class="a" d="M15.793,58.353a5.092,5.092,0,0,1,7.2,0,10.6,10.6,0,0,0,14.986,0,5.092,5.092,0,0,1,7.2,0,10.657,10.657,0,0,0,14.986,0,4.386,4.386,0,0,1,3.6-1.491,5.027,5.027,0,0,1,3.6,1.491,10.608,10.608,0,0,0,14.986,0,2.753,2.753,0,0,0-3.893-3.893,5.092,5.092,0,0,1-7.2,0A10.532,10.532,0,0,0,62.867,51.4V15.2a12.663,12.663,0,1,0-25.325,0,2.753,2.753,0,0,0,5.505,0,7.157,7.157,0,0,1,14.314,0V26.945H32.4V15.2a12.663,12.663,0,0,0-25.325,0,2.753,2.753,0,0,0,5.505,0,7.157,7.157,0,0,1,14.314,0V54.472l-.012-.011a10.608,10.608,0,0,0-14.986,0,5.092,5.092,0,0,1-7.2,0A2.753,2.753,0,0,0,.807,58.353,10.608,10.608,0,0,0,15.793,58.353Zm36.879-2.4a5.059,5.059,0,0,1-3.6-1.491,10.609,10.609,0,0,0-14.986,0A5.081,5.081,0,0,1,32.4,55.579V48.966H57.361v4.545a10.722,10.722,0,0,0-1.089.949A5.057,5.057,0,0,1,52.672,55.951Zm4.689-23.5V43.461H32.4V32.45Z" transform="translate(-0.002)"/><path class="a" d="M78.457,335.154a5.092,5.092,0,0,1-7.2,0,10.591,10.591,0,0,0-14.986,0,5.092,5.092,0,0,1-7.2,0,10.609,10.609,0,0,0-14.986,0,5.091,5.091,0,0,1-7.2,0,10.608,10.608,0,0,0-14.986,0,5.092,5.092,0,0,1-7.2,0A2.753,2.753,0,1,0,.8,339.047a10.608,10.608,0,0,0,14.986,0,5.092,5.092,0,0,1,7.2,0,10.6,10.6,0,0,0,14.986,0,5.092,5.092,0,0,1,7.2,0,10.609,10.609,0,0,0,14.986,0,5.092,5.092,0,0,1,7.2,0,10.608,10.608,0,0,0,14.986,0,2.753,2.753,0,1,0-3.893-3.893Z" transform="translate(-0.001 -269.041)"/><path class="a" d="M78.456,398.665a5.092,5.092,0,0,1-7.2,0,10.6,10.6,0,0,0-14.986,0,5.092,5.092,0,0,1-7.2,0,10.608,10.608,0,0,0-14.986,0,5.092,5.092,0,0,1-7.2,0,10.608,10.608,0,0,0-14.986,0,5.092,5.092,0,0,1-7.2,0A2.753,2.753,0,0,0,.8,402.558a10.608,10.608,0,0,0,14.986,0,5.092,5.092,0,0,1,7.2,0,10.6,10.6,0,0,0,14.986,0,5.092,5.092,0,0,1,7.2,0,10.609,10.609,0,0,0,14.986,0,5.092,5.092,0,0,1,7.2,0,10.608,10.608,0,0,0,14.986,0,2.753,2.753,0,0,0-3.893-3.893Z" transform="translate(0 -320.898)"/></g></svg>