<svg xmlns="http://www.w3.org/2000/svg" width="42.525" height="40.535" viewBox="0 0 42.525 40.535"><defs><style>.a{fill:#073558;}</style></defs><g transform="translate(0)"><g transform="translate(0 25.918)"><path class="a" d="M21.262,51.8a.662.662,0,0,1-.29-.066L.374,41.766a.665.665,0,1,1,.579-1.2L21.262,50.4,41.57,40.57a.665.665,0,0,1,.579,1.2l-20.6,9.967a.666.666,0,0,1-.289.066Z" transform="translate(0.001 -40.503)"/></g><g transform="translate(0 29.24)"><path class="a" d="M21.262,56.8a.662.662,0,0,1-.29-.066L.374,46.765a.665.665,0,0,1,.579-1.2L21.262,55.4,41.57,45.569a.665.665,0,0,1,.579,1.2l-20.6,9.967a.666.666,0,0,1-.289.066Z" transform="translate(0.001 -45.503)"/></g><g transform="translate(0 25.918)"><path class="a" d="M.664,45.154A.664.664,0,0,1,0,44.49V41.167a.664.664,0,1,1,1.329,0V44.49A.664.664,0,0,1,.664,45.154Z" transform="translate(0 -40.503)"/></g><g transform="translate(41.196 25.918)"><path class="a" d="M62.664,45.154A.664.664,0,0,1,62,44.49V41.167a.664.664,0,1,1,1.329,0V44.49A.664.664,0,0,1,62.664,45.154Z" transform="translate(-62 -40.503)"/></g><g transform="translate(20.598 35.884)"><path class="a" d="M31.664,60.154A.664.664,0,0,1,31,59.49V56.167a.664.664,0,1,1,1.329,0V59.49A.664.664,0,0,1,31.664,60.154Z" transform="translate(-31 -55.503)"/></g><g transform="translate(27.259 34.33)"><path class="a" d="M41.693,54.493a.664.664,0,0,1-.007-1.329h.007a.664.664,0,1,1,0,1.329Z" transform="translate(-41.025 -53.164)"/></g><g transform="translate(37.226 29.508)"><path class="a" d="M56.693,47.235a.664.664,0,0,1-.007-1.329h.007a.664.664,0,1,1,0,1.329Z" transform="translate(-56.025 -45.906)"/></g><g transform="translate(33.903 31.115)"><path class="a" d="M51.693,49.654a.664.664,0,0,1-.007-1.329h.007a.664.664,0,1,1,0,1.329Z" transform="translate(-51.025 -48.325)"/></g><g transform="translate(30.581 32.723)"><path class="a" d="M46.693,52.074a.664.664,0,0,1-.007-1.329h.007a.664.664,0,1,1,0,1.329Z" transform="translate(-46.025 -50.745)"/></g><g transform="translate(23.937 35.938)"><path class="a" d="M36.693,56.913a.664.664,0,0,1-.007-1.329h.007a.664.664,0,0,1,0,1.329Z" transform="translate(-36.025 -55.584)"/></g><g transform="translate(13.97 34.33)"><path class="a" d="M21.693,54.493a.664.664,0,0,1-.007-1.329h.007a.664.664,0,1,1,0,1.329Z" transform="translate(-21.025 -53.164)"/></g><g transform="translate(4.004 29.508)"><path class="a" d="M6.693,47.235a.664.664,0,0,1-.007-1.329h.007a.664.664,0,1,1,0,1.329Z" transform="translate(-6.025 -45.906)"/></g><g transform="translate(7.326 31.115)"><path class="a" d="M11.693,49.654a.664.664,0,0,1-.007-1.329h.007a.664.664,0,1,1,0,1.329Z" transform="translate(-11.025 -48.325)"/></g><g transform="translate(10.648 32.723)"><path class="a" d="M16.693,52.074a.664.664,0,0,1-.007-1.329h.007a.664.664,0,1,1,0,1.329Z" transform="translate(-16.025 -50.745)"/></g><g transform="translate(17.292 35.938)"><path class="a" d="M26.693,56.913a.664.664,0,0,1-.007-1.329h.007a.664.664,0,0,1,0,1.329Z" transform="translate(-26.025 -55.584)"/></g><g transform="translate(11.218 19.168)"><path class="a" d="M17.547,33a.664.664,0,0,1-.29-1.262l2.736-1.324a.665.665,0,1,1,.579,1.2l-2.736,1.324A.674.674,0,0,1,17.547,33Z" transform="translate(-16.882 -30.345)"/></g><g transform="translate(0.001 22.256)"><path class="a" d="M.665,39.982a.664.664,0,0,1-.29-1.262l7.572-3.663a.665.665,0,1,1,.579,1.2L.954,39.916a.665.665,0,0,1-.289.066Z" transform="translate(0 -34.991)"/></g><g transform="translate(27.243 19.167)"><path class="a" d="M44.4,32.994a.663.663,0,0,1-.289-.066l-2.733-1.322a.665.665,0,0,1,.579-1.2l2.733,1.322a.665.665,0,0,1-.29,1.263Z" transform="translate(-41 -30.343)"/></g><g transform="translate(33.622 22.253)"><path class="a" d="M58.839,39.981a.663.663,0,0,1-.289-.066L50.977,36.25a.665.665,0,1,1,.579-1.2l7.573,3.664a.665.665,0,0,1-.29,1.263Z" transform="translate(-50.601 -34.988)"/></g><g transform="translate(13.954 25.919)"><path class="a" d="M28.309,45.156a.665.665,0,0,1-.3-.07l-6.644-3.323a.665.665,0,1,1,.595-1.189l6.347,3.174,6.347-3.174a.665.665,0,0,1,.595,1.189l-6.644,3.323a.67.67,0,0,1-.3.07Z" transform="translate(-21 -40.505)"/></g><g transform="translate(13.954 3.323)"><path class="a" d="M28.309,11.149a.665.665,0,0,1-.3-.07L21.367,7.756a.665.665,0,1,1,.595-1.189l6.347,3.174,6.347-3.174a.665.665,0,0,1,.595,1.189l-6.644,3.323a.67.67,0,0,1-.3.07Z" transform="translate(-21 -6.498)"/></g><g transform="translate(13.953)"><path class="a" d="M34.952,6.148a.666.666,0,0,1-.3-.07L28.309,2.9,21.961,6.078a.665.665,0,0,1-.595-1.189l6.644-3.323a.664.664,0,0,1,.595,0L35.25,4.889a.665.665,0,0,1-.3,1.259Z" transform="translate(-20.999 -1.496)"/></g><g transform="translate(20.598 6.645)"><path class="a" d="M31.664,35.422A.664.664,0,0,1,31,34.758v-22.6a.664.664,0,1,1,1.329,0v22.6A.664.664,0,0,1,31.664,35.422Z" transform="translate(-31 -11.497)"/></g><g transform="translate(27.242 3.322)"><path class="a" d="M41.664,30.421A.664.664,0,0,1,41,29.757V7.16a.664.664,0,1,1,1.329,0v22.6A.664.664,0,0,1,41.664,30.421Z" transform="translate(-41 -6.496)"/></g><g transform="translate(13.954 3.322)"><path class="a" d="M21.664,30.421A.664.664,0,0,1,21,29.757V7.16a.664.664,0,0,1,1.329,0v22.6A.664.664,0,0,1,21.664,30.421Z" transform="translate(-21 -6.496)"/></g><g transform="translate(15.946 23.59)"><path class="a" d="M27.32,39.658a.666.666,0,0,1-.3-.07l-2.658-1.33a.665.665,0,1,1,.595-1.189l2.658,1.33a.664.664,0,0,1-.3,1.258Z" transform="translate(-23.998 -37)"/></g><g transform="translate(15.946 20.932)"><path class="a" d="M27.32,35.658a.666.666,0,0,1-.3-.07l-2.658-1.33a.665.665,0,0,1,.595-1.189l2.658,1.33a.664.664,0,0,1-.3,1.258Z" transform="translate(-23.998 -33)"/></g><g transform="translate(15.946 18.274)"><path class="a" d="M27.32,31.658a.666.666,0,0,1-.3-.07l-2.658-1.33a.665.665,0,0,1,.595-1.189l2.658,1.33a.664.664,0,0,1-.3,1.258Z" transform="translate(-23.998 -29)"/></g><g transform="translate(15.946 15.617)"><path class="a" d="M27.32,27.658a.666.666,0,0,1-.3-.07l-2.658-1.33a.665.665,0,1,1,.595-1.189l2.658,1.33a.664.664,0,0,1-.3,1.258Z" transform="translate(-23.998 -25)"/></g><g transform="translate(15.946 12.959)"><path class="a" d="M27.32,23.658a.666.666,0,0,1-.3-.07l-2.658-1.33a.665.665,0,1,1,.595-1.189l2.658,1.33a.664.664,0,0,1-.3,1.258Z" transform="translate(-23.998 -21)"/></g><g transform="translate(15.946 10.301)"><path class="a" d="M27.32,19.658a.666.666,0,0,1-.3-.07l-2.658-1.33a.665.665,0,0,1,.595-1.189l2.658,1.33a.664.664,0,0,1-.3,1.258Z" transform="translate(-23.998 -17)"/></g><g transform="translate(15.946 7.643)"><path class="a" d="M27.32,15.658a.666.666,0,0,1-.3-.07l-2.658-1.33a.665.665,0,1,1,.595-1.189l2.658,1.33a.664.664,0,0,1-.3,1.258Z" transform="translate(-23.998 -13)"/></g><g transform="translate(22.591 23.589)"><path class="a" d="M34.666,39.657a.665.665,0,0,1-.3-1.259l2.658-1.33a.665.665,0,0,1,.595,1.189l-2.658,1.33A.658.658,0,0,1,34.666,39.657Z" transform="translate(-34 -36.999)"/></g><g transform="translate(22.591 20.932)"><path class="a" d="M34.666,35.657a.665.665,0,0,1-.3-1.259l2.658-1.33a.665.665,0,0,1,.595,1.189l-2.658,1.33a.658.658,0,0,1-.3.07Z" transform="translate(-34 -32.999)"/></g><g transform="translate(22.591 18.274)"><path class="a" d="M34.666,31.657a.665.665,0,0,1-.3-1.259l2.658-1.33a.665.665,0,0,1,.595,1.189l-2.658,1.33A.658.658,0,0,1,34.666,31.657Z" transform="translate(-34 -28.999)"/></g><g transform="translate(22.591 15.616)"><path class="a" d="M34.666,27.657a.665.665,0,0,1-.3-1.259l2.658-1.33a.665.665,0,0,1,.595,1.189l-2.658,1.33A.658.658,0,0,1,34.666,27.657Z" transform="translate(-34 -24.999)"/></g><g transform="translate(22.591 12.958)"><path class="a" d="M34.666,23.657a.665.665,0,0,1-.3-1.259l2.658-1.33a.665.665,0,0,1,.595,1.189l-2.658,1.33a.658.658,0,0,1-.3.07Z" transform="translate(-34 -20.999)"/></g><g transform="translate(22.591 10.3)"><path class="a" d="M34.666,19.657a.665.665,0,0,1-.3-1.259l2.658-1.33a.665.665,0,0,1,.595,1.189l-2.658,1.33A.658.658,0,0,1,34.666,19.657Z" transform="translate(-34 -16.999)"/></g><g transform="translate(22.591 7.643)"><path class="a" d="M34.666,15.657a.665.665,0,0,1-.3-1.259l2.658-1.33a.665.665,0,0,1,.595,1.189l-2.658,1.33A.658.658,0,0,1,34.666,15.657Z" transform="translate(-34 -12.999)"/></g><g transform="translate(29.9 16.611)"><path class="a" d="M47.658,34.472A2.66,2.66,0,0,1,45,31.814c0-.758.765-5.318,2.658-5.318s2.658,4.56,2.658,5.318A2.66,2.66,0,0,1,47.658,34.472Zm0-6.632c-.525.322-1.329,2.879-1.329,3.975a1.329,1.329,0,0,0,2.658,0C48.987,30.719,48.183,28.162,47.658,27.839Z" transform="translate(-45 -26.496)"/></g><g transform="translate(31.894 21.265)"><path class="a" d="M48.664,39.478A.664.664,0,0,1,48,38.814V34.164a.664.664,0,1,1,1.329,0v4.649A.664.664,0,0,1,48.664,39.478Z" transform="translate(-48 -33.5)"/></g><g transform="translate(7.309 16.611)"><path class="a" d="M13.658,34.472A2.66,2.66,0,0,1,11,31.814c0-.758.765-5.318,2.658-5.318s2.658,4.56,2.658,5.318A2.66,2.66,0,0,1,13.658,34.472Zm0-6.632c-.525.322-1.329,2.879-1.329,3.975a1.329,1.329,0,0,0,2.658,0C14.987,30.719,14.183,28.162,13.658,27.839Z" transform="translate(-11 -26.496)"/></g><g transform="translate(9.303 21.265)"><path class="a" d="M14.664,39.478A.664.664,0,0,1,14,38.814V34.164a.664.664,0,1,1,1.329,0v4.649A.664.664,0,0,1,14.664,39.478Z" transform="translate(-14 -33.5)"/></g></g></svg>