<svg xmlns="http://www.w3.org/2000/svg" width="71.865" height="71.865" viewBox="0 0 71.865 71.865"><defs><style>.a{fill:#00a8e1;}</style></defs><g transform="translate(-8 -8)"><path class="a" d="M198.975,207.568,188.543,192.5a1.159,1.159,0,0,0-1.907,0L176.2,207.568a1.158,1.158,0,0,0-.146,1.026l2.969,8.906h-.71a1.159,1.159,0,0,0-1.159,1.159v3.477a1.159,1.159,0,0,0,1.159,1.159h1.159v12.75a1.159,1.159,0,0,0,1.159,1.159h13.909a1.159,1.159,0,0,0,1.159-1.159V223.3h1.159a1.159,1.159,0,0,0,1.159-1.159V218.66a1.159,1.159,0,0,0-1.159-1.159h-.71l2.969-8.906a1.158,1.158,0,0,0-.146-1.026Zm-11.385-1.659a1.159,1.159,0,1,1-1.159,1.159A1.159,1.159,0,0,1,187.59,205.909Zm5.8,28.978H181.794V223.3h11.591Zm2.318-13.909H179.476v-1.159H195.7Zm-2-3.477H181.471l-3.031-9.089,7.991-11.542v6.721a1.223,1.223,0,0,0,.017.194,3.477,3.477,0,1,0,2.283,0,1.225,1.225,0,0,0,.017-.194V196.87l7.991,11.542Z" transform="translate(-143.657 -157.341)"/><path class="a" d="M78.706,20.75H74.069a1.159,1.159,0,0,0-1.159,1.159v1.169a1.2,1.2,0,0,0-.145-.01H47.41V21.909a1.159,1.159,0,0,0-1.159-1.159H45.092v-5.8h1.159A1.159,1.159,0,0,0,47.41,13.8V9.159A1.159,1.159,0,0,0,46.251,8H41.614a1.159,1.159,0,0,0-1.159,1.159V13.8a1.159,1.159,0,0,0,1.159,1.159h1.159v5.8H41.614a1.159,1.159,0,0,0-1.159,1.159v1.159h-25.5V21.909A1.159,1.159,0,0,0,13.8,20.75H9.159A1.159,1.159,0,0,0,8,21.909v4.636A1.159,1.159,0,0,0,9.159,27.7H13.8a1.159,1.159,0,0,0,1.159-1.159V25.387H34.118a18.131,18.131,0,0,0-4.055,3.673,20.154,20.154,0,0,0-4.676,12.555H24.228a1.159,1.159,0,0,0-1.159,1.159V47.41a1.159,1.159,0,0,0,1.159,1.159h4.636a1.159,1.159,0,0,0,1.159-1.159V42.773a1.159,1.159,0,0,0-1.159-1.159H27.7c0-8.595,6.613-15.374,12.75-16.152v1.084A1.159,1.159,0,0,0,41.614,27.7h4.636a1.159,1.159,0,0,0,1.159-1.159V25.458c3.138.372,6.151,2.253,8.582,5.39A20.346,20.346,0,0,1,60.12,41.614H59a1.159,1.159,0,0,0-1.159,1.159V47.41A1.159,1.159,0,0,0,59,48.569h4.636A1.159,1.159,0,0,0,64.8,47.41V42.773a1.159,1.159,0,0,0-1.159-1.159h-1.2a22.38,22.38,0,0,0-4.618-12.188,18.313,18.313,0,0,0-4.26-4.04h19.2a1.2,1.2,0,0,0,.145-.01v1.169A1.159,1.159,0,0,0,74.069,27.7h4.636a1.159,1.159,0,0,0,1.159-1.159V21.909A1.159,1.159,0,0,0,78.706,20.75ZM12.636,25.387H10.318V23.068h2.318ZM27.7,46.251H25.387V43.932H27.7ZM42.773,10.318h2.318v2.318H42.773Zm2.318,15.068H42.773V23.068h2.318ZM60.16,43.932h2.318v2.318H60.16ZM77.547,25.387H75.229V23.068h2.318Z"/></g></svg>