<svg xmlns="http://www.w3.org/2000/svg" width="41.427" height="41.427" viewBox="0 0 41.427 41.427"><defs><style>.a{fill:#073558;}</style></defs><g transform="translate(-16 -16)"><path class="a" d="M312.69,335.6h8.285a.691.691,0,0,0,.691-.691V328.69a.691.691,0,0,0-.691-.69H312.69a.691.691,0,0,0-.69.69V334.9A.691.691,0,0,0,312.69,335.6Zm.691-6.214h6.9v4.833h-6.9Z" transform="translate(-270.453 -285.073)"/><path class="a" d="M97.281,328H89.024a.69.69,0,0,0-.69.69V334.9a.691.691,0,0,0,.69.691h8.257a.691.691,0,0,0,.69-.691V328.69A.69.69,0,0,0,97.281,328Zm-.69,6.214H89.714v-4.833H96.59Z" transform="translate(-66.091 -285.073)"/><path class="a" d="M55.356,53.284H53.975V41.477a3.458,3.458,0,0,0,2.762-3.383V36.713A.688.688,0,0,0,56.5,36.2h0l-5.982-5.318V25.666a2.074,2.074,0,0,0-2.071-2.071H43.908l-.292-3.51a.69.69,0,0,0-.688-.633H39.475V18.071a2.07,2.07,0,0,0-3.452-1.542,2.07,2.07,0,0,0-3.452,1.542v1.381H30.5a.69.69,0,0,0-.688.633l-.292,3.51H24.976A2.074,2.074,0,0,0,22.9,25.666v5.214L16.922,36.2h0a.688.688,0,0,0-.232.515v1.381a3.458,3.458,0,0,0,2.762,3.383V53.284H18.071a2.071,2.071,0,1,0,0,4.143H55.356a2.071,2.071,0,0,0,0-4.143Zm0-15.19a2.071,2.071,0,0,1-4.143,0V37.4h4.143Zm-31.5-6.214h1.254l-2.589,4.143H19.2ZM54.23,36.023H50.905L48.316,31.88H49.57ZM46.688,31.88l2.589,4.143H45.608l-.518-4.143Zm-2.989,0,.518,4.143H40.166V31.88Zm-4.914,4.143H34.642V31.88h4.143Zm-5.524,0H29.21l.518-4.143h3.533Zm-5.443,0H24.15l2.589-4.143h1.6ZM23.595,37.4h4.143v.69a2.071,2.071,0,0,1-4.143,0Zm5.524,0h4.143v.69a2.071,2.071,0,0,1-4.143,0Zm5.524,0h4.143v.69a2.071,2.071,0,0,1-4.143,0Zm5.524,0h4.143v.69a2.071,2.071,0,0,1-4.143,0Zm5.524,0h4.143v.69a2.071,2.071,0,0,1-4.143,0Zm-3.4-16.571.575,6.9H40.111l-.575-6.9ZM37.4,17.38a.691.691,0,0,1,.69.69v1.381H36.714V18.071A.691.691,0,0,1,37.4,17.38Zm-3.452.69a.69.69,0,1,1,1.381,0v1.381H33.952Zm-2.817,2.762h1.436v1.381h1.381V20.833h1.381v1.381h1.381V20.833H38.15l.575,6.9H30.559Zm-6.849,4.833a.691.691,0,0,1,.69-.69H29.4l-.283,3.395a.69.69,0,0,0,.688.748H43.618a.69.69,0,0,0,.688-.748l-.283-3.395h4.428a.691.691,0,0,1,.69.69V30.5H24.285ZM18.071,38.094V37.4h4.143v.69a2.071,2.071,0,0,1-4.143,0Zm2.762,3.383A3.458,3.458,0,0,0,22.9,40.163a3.449,3.449,0,0,0,5.524,0,3.449,3.449,0,0,0,5.524,0,3.449,3.449,0,0,0,5.524,0,3.449,3.449,0,0,0,5.524,0,3.449,3.449,0,0,0,5.524,0,3.458,3.458,0,0,0,2.071,1.314V53.284H40.166V43.618a.69.69,0,0,0-.69-.69H33.952a.69.69,0,0,0-.69.69v9.666H20.833ZM38.785,53.284H34.642V44.308h4.143Zm16.571,2.762H18.071a.69.69,0,1,1,0-1.381H55.356a.69.69,0,0,1,0,1.381Z" transform="translate(0 0)"/></g></svg>