<svg xmlns="http://www.w3.org/2000/svg" width="66.191" height="82.732" viewBox="0 0 66.191 82.732"><defs><style>.a{fill:#135aa0;}</style></defs><g transform="translate(-51.185 0)"><g transform="translate(51.185 0)"><path class="a" d="M113.29,43.537V41.021A21.18,21.18,0,0,0,92.765,19.875V14.717h13.188V0H74.73V14.717H87.917v5.148h-20.8v-5.64H51.185V45.077H67.121v-5.64H92.135a1.585,1.585,0,0,1,1.583,1.583v2.517H89.633V58.2h27.742V43.537ZM101.1,9.869h-8.34V4.848h8.34Zm-21.528,0V4.848h8.34V9.869ZM62.273,40.23H56.033V19.073h6.241Zm29.862-5.64H67.121V24.713H92.135a16.326,16.326,0,0,1,16.308,16.308v2.517H98.566V41.021A6.438,6.438,0,0,0,92.135,34.59Zm20.393,18.76H94.481V48.385h18.047V53.35Z" transform="translate(-51.185 0)"/></g><g transform="translate(96.065 64.122)"><path class="a" d="M337.963,398.21l-1.59-1.383-1.591,1.383c-.977.849-5.849,5.312-5.849,9.788a7.439,7.439,0,0,0,14.878,0C343.811,403.522,338.939,399.059,337.963,398.21Zm-1.59,12.38A2.594,2.594,0,0,1,333.781,408c0-1.2,1.258-3.042,2.592-4.538,1.333,1.5,2.592,3.34,2.592,4.538A2.6,2.6,0,0,1,336.372,410.59Z" transform="translate(-328.933 -396.827)"/></g></g></svg>