<svg xmlns="http://www.w3.org/2000/svg" width="87.529" height="71.638" viewBox="0 0 87.529 71.638"><defs><style>.a{fill:#00a8e1;}</style></defs><g transform="translate(-8)"><g transform="translate(57.279 10.638)"><g transform="translate(0 0)"><rect class="a" width="32" height="2" transform="translate(-0.279)"/></g></g><g transform="translate(50.506 14.638)"><g transform="translate(0 0)"><rect class="a" width="20" height="4" transform="translate(0.494)"/></g></g><g transform="translate(50.506 20.638)"><g transform="translate(0 0)"><rect class="a" width="20" height="2" transform="translate(0.494)"/></g></g><g transform="translate(67.279 6.638)"><g transform="translate(0 0)"><rect class="a" width="22" height="2" transform="translate(-0.279)"/></g></g><g transform="translate(52.657 6.638)"><g transform="translate(0 0)"><rect class="a" width="3" height="2" transform="translate(0.343)"/></g></g><g transform="translate(49.97 47.638)"><g transform="translate(0 0)"><rect class="a" width="2" height="3" transform="translate(0.03)"/></g></g><g transform="translate(26.368 6.32)"><g transform="translate(0)"><path class="a" d="M108.428,44.032l-1.688-1.688-2.388,2.388a1.194,1.194,0,0,0,0,1.688l2.388,2.388,1.688-1.688-1.544-1.544Z" transform="translate(-104.002 -42.344)"/></g></g><g transform="translate(39.061 6.32)"><path class="a" d="M174.42,44.732l-2.388-2.388-1.688,1.688,1.544,1.544-1.544,1.544,1.688,1.688,2.388-2.388A1.194,1.194,0,0,0,174.42,44.732Z" transform="translate(-170.344 -42.344)"/></g><g transform="translate(32.586 5.591)"><g transform="translate(0)"><rect class="a" width="7.552" height="2.387" transform="translate(0 7.164) rotate(-71.549)"/></g></g><g transform="translate(63.292 25.073)"><path class="a" d="M279.879,179.94v-9.552h-2.388v9.552H275.1V168h-2.388v11.94h-2.388v-5.97H267.94v5.97h-2.388v-7.164h-2.388v7.164h-2.388v-4.776h-2.388v4.776H256v2.388h26.267V179.94Z" transform="translate(-256 -168)"/></g><g transform="translate(8)"><g transform="translate(0)"><path class="a" d="M86.475,0H17.055C12.056,0,8,3.209,8,7.164V47.759c0,3.955,4.056,7.16,9.055,7.164H35.741L29.7,64.474H21.582c-2.5,0-4.527,1.6-4.527,3.582s2.027,3.582,4.527,3.582H81.947c2.5,0,4.527-1.6,4.527-3.582s-2.027-3.582-4.527-3.582H73.825l-6.037-9.552H86.475c5,0,9.05-3.209,9.055-7.164V7.164C95.525,3.209,91.473,0,86.475,0ZM11.018,16.8l3.43,3.231a1.7,1.7,0,0,0,1.156.426h4.619a1.7,1.7,0,0,0,1.156-.426L24.812,16.8l3.386.87.374,4.206a1.16,1.16,0,0,0,.617.882l3.738,2.149a1.848,1.848,0,0,0,1.253.192l5.181-1.018,2.095,2.279-2.824,3.582a.981.981,0,0,0-.148,1l1.429,3.476a1.359,1.359,0,0,0,.868.738l4.947,1.587v2.818l-4.95,1.587a1.35,1.35,0,0,0-.868.739l-.453,1.095H30.764c3.382-5.6.383-12.313-6.7-14.988a17.574,17.574,0,0,0-13.048.328Zm0,14.363C15.9,28.15,22.944,28.838,26.752,32.7a7.416,7.416,0,0,1,.565,10.283h-16.3Zm70.929,35.7a1.227,1.227,0,1,1,0,2.388H21.582a1.227,1.227,0,1,1,0-2.388Zm-11.5-2.388H33.079l6.037-9.552h25.3Zm22.06-16.716c0,2.638-2.7,4.776-6.037,4.776H17.055c-3.334,0-6.037-2.138-6.037-4.776V45.371H92.511Zm0-4.776H43.095l4.71-1.51a1.23,1.23,0,0,0,.942-1.106V35.938a1.23,1.23,0,0,0-.942-1.107l-5.246-1.679-.993-2.418,2.991-3.8a.994.994,0,0,0-.06-1.332l-3.29-3.582a1.733,1.733,0,0,0-1.585-.457l-5.487,1.075-2.593-1.49-.4-4.454a1.285,1.285,0,0,0-1.04-1.052l-5.32-1.368a1.787,1.787,0,0,0-1.622.369l-3.632,3.421H16.312l-3.634-3.421a1.787,1.787,0,0,0-1.624-.369l-.036.011V7.164c0-2.638,2.7-4.776,6.037-4.776h69.42c3.334,0,6.037,2.138,6.037,4.776Z" transform="translate(-8)"/></g></g></g></svg>