<svg xmlns="http://www.w3.org/2000/svg" width="87.529" height="72" viewBox="0 0 87.529 72"><defs><style>.a{fill:#00a8e1;}</style></defs><g transform="translate(-8 -56)"><path class="a" d="M89.882,56H13.647A5.654,5.654,0,0,0,8,61.647v48a5.654,5.654,0,0,0,5.647,5.647h29.1l-1.883,5.647H36.235a1.412,1.412,0,0,0-1.412,1.412v2.824H22.118a1.412,1.412,0,0,0,0,2.824H84.235a1.412,1.412,0,0,0,0-2.824H68.706v-2.824a1.412,1.412,0,0,0-1.412-1.412H62.665l-1.883-5.647h29.1a5.654,5.654,0,0,0,5.647-5.647v-48A5.654,5.654,0,0,0,89.882,56Zm-24,67.765v1.412H37.647v-1.412Zm-22.041-2.824,1.883-5.647H57.805l1.883,5.647Zm48.865-11.294a2.827,2.827,0,0,1-2.824,2.824H13.647a2.827,2.827,0,0,1-2.824-2.824v-2.824H92.706ZM31.94,91.294,31.411,104H29.766l-.529-12.706Zm-2.509-2.824.942-5.647H30.8l.942,5.647ZM30.588,80c-1.53,0-2.824-1.939-2.824-4.235,0-1.449,1.479-3.554,2.82-5.038,1.209,1.341,2.827,3.485,2.827,5.038C33.412,78.061,32.118,80,30.588,80Zm15.364-2.824.166.334v1.078H40.471V77.51l.166-.334Zm-3.9-2.824,1.246-2.49,1.246,2.49Zm4.069,7.059v22.412a1.458,1.458,0,0,0,.012.176H40.458a1.458,1.458,0,0,0,.012-.176V81.412Zm12.706-5.647h4.235v2.824H61.647a1.412,1.412,0,1,0,0,2.824h1.412v2.824H58.824a1.412,1.412,0,0,0,0,2.824h4.235v2.824H61.647a1.412,1.412,0,1,0,0,2.824h1.412v2.824H58.824a1.412,1.412,0,1,0,0,2.824h4.235V104H53.176V70.118h9.882v2.824H58.824a1.412,1.412,0,0,0,0,2.824ZM75.765,92.706v11.118a1.455,1.455,0,0,0,.012.176H70.105a1.457,1.457,0,0,0,.012-.176V92.706Zm-5.647-2.824V88.8l2.824-5.647L75.765,88.8v1.078ZM92.706,104H78.576a1.455,1.455,0,0,0,.012-.176V88.471a1.426,1.426,0,0,0-.148-.632L74.2,79.368a1.413,1.413,0,0,0-2.527,0l-4.235,8.471a1.426,1.426,0,0,0-.148.632v15.353a1.455,1.455,0,0,0,.012.176H65.882V68.706a1.412,1.412,0,0,0-1.412-1.412H51.765a1.412,1.412,0,0,0-1.412,1.412V104H48.929a1.458,1.458,0,0,0,.012-.176V77.176a1.426,1.426,0,0,0-.148-.632l-4.235-8.471a1.413,1.413,0,0,0-2.527,0L37.8,76.545a1.426,1.426,0,0,0-.148.632v26.647a1.458,1.458,0,0,0,.012.176H34.236l.586-14.059c0-.032,0-.064,0-.1V89.8a1.414,1.414,0,0,0-.018-.148v0L33.5,81.812a7.559,7.559,0,0,0,2.737-6.048c0-3.628-4.205-7.646-4.685-8.093a1.415,1.415,0,0,0-1.924,0c-.48.446-4.685,4.465-4.685,8.093a7.559,7.559,0,0,0,2.737,6.048l-1.306,7.837v0a1.415,1.415,0,0,0-.018.148v.042c0,.034,0,.065,0,.1L26.941,104H10.824V61.647a2.827,2.827,0,0,1,2.824-2.824H89.882a2.827,2.827,0,0,1,2.824,2.824Z"/><path class="a" d="M49.882,352H41.412a1.412,1.412,0,0,0,0,2.824h8.471a1.412,1.412,0,0,0,0-2.824Z" transform="translate(-26.353 -243.765)"/><path class="a" d="M114.824,352h-1.412a1.412,1.412,0,0,0,0,2.824h1.412a1.412,1.412,0,0,0,0-2.824Z" transform="translate(-85.647 -243.765)"/><path class="a" d="M201.412,208A1.412,1.412,0,0,0,200,209.412v15.529a1.412,1.412,0,0,0,2.824,0V209.412A1.412,1.412,0,0,0,201.412,208Z" transform="translate(-158.118 -125.176)"/><path class="a" d="M369.412,272A1.412,1.412,0,0,0,368,273.412v4.235a1.412,1.412,0,1,0,2.824,0v-4.235A1.412,1.412,0,0,0,369.412,272Z" transform="translate(-296.471 -177.882)"/><path class="a" d="M41.412,90.824H52.706a1.412,1.412,0,0,0,0-2.824H41.412a1.412,1.412,0,1,0,0,2.824Z" transform="translate(-26.353 -26.353)"/><path class="a" d="M41.412,114.824h2.824a1.412,1.412,0,1,0,0-2.824H41.412a1.412,1.412,0,1,0,0,2.824Z" transform="translate(-26.353 -46.118)"/><path class="a" d="M425.412,298.824h5.647a1.412,1.412,0,0,0,0-2.824h-5.647a1.412,1.412,0,1,0,0,2.824Z" transform="translate(-342.588 -197.647)"/><path class="a" d="M449.412,274.824h1.412a1.412,1.412,0,1,0,0-2.824h-1.412a1.412,1.412,0,0,0,0,2.824Z" transform="translate(-362.353 -177.882)"/></g></svg>